<?xml version="1.0" encoding="UTF-8"?>
<!DOCTYPE svg PUBLIC "-//W3C//DTD SVG 1.1//EN" "http://www.w3.org/Graphics/SVG/1.1/DTD/svg11.dtd">
<svg xmlns="http://www.w3.org/2000/svg" version="1.1" width="256px" height="256px" style="shape-rendering:geometricPrecision; text-rendering:geometricPrecision; image-rendering:optimizeQuality; fill-rule:evenodd; clip-rule:evenodd" xmlns:xlink="http://www.w3.org/1999/xlink">
<g><path style="opacity:0.063" fill="#000000" d="M 112.5,-0.5 C 122.5,-0.5 132.5,-0.5 142.5,-0.5C 208.085,12.0853 245.752,51.4186 255.5,117.5C 255.5,124.167 255.5,130.833 255.5,137.5C 245.63,204.036 207.63,243.369 141.5,255.5C 132.167,255.5 122.833,255.5 113.5,255.5C 49.1687,243.835 11.1687,205.835 -0.5,141.5C -0.5,132.167 -0.5,122.833 -0.5,113.5C 7.12006,62.4478 34.7867,26.9478 82.5,7C 92.4247,3.65474 102.425,1.15474 112.5,-0.5 Z"/></g>
<g><path style="opacity:0.171" fill="#111111" d="M 112.5,3.5 C 166.5,0.244796 207.333,21.5781 235,67.5C 253.327,103.751 254.994,140.751 240,178.5C 220.029,220.126 187.195,244.626 141.5,252C 78.1909,255.275 34.3575,227.775 10,169.5C -5.63091,115.846 6.86909,70.0129 47.5,32C 66.5704,16.4623 88.2371,6.96226 112.5,3.5 Z"/></g>
<g><path style="opacity:1" fill="#fbf9f9" d="M 148.5,10.5 C 152.239,12.1016 156.239,13.1016 160.5,13.5C 168.381,15.3443 175.714,18.3443 182.5,22.5C 185.494,24.9998 188.827,26.9998 192.5,28.5C 197.746,31.4108 202.413,35.0775 206.5,39.5C 209.436,44.1053 213.102,48.1053 217.5,51.5C 218.08,53.7488 219.413,55.4154 221.5,56.5C 223.262,57.2623 224.262,58.5956 224.5,60.5C 224.427,62.0269 225.094,63.0269 226.5,63.5C 229.927,68.0157 232.593,73.0157 234.5,78.5C 236.303,85.4205 238.636,92.0871 241.5,98.5C 241.5,98.8333 241.5,99.1667 241.5,99.5C 241.41,102.152 242.076,104.485 243.5,106.5C 243.5,106.833 243.5,107.167 243.5,107.5C 245.039,123.59 244.372,139.59 241.5,155.5C 241.5,155.833 241.5,156.167 241.5,156.5C 239.265,161.205 237.598,166.205 236.5,171.5C 236.598,173.553 235.931,175.22 234.5,176.5C 231.992,180.182 229.992,184.182 228.5,188.5C 228.25,190.674 227.25,192.341 225.5,193.5C 224.094,193.973 223.427,194.973 223.5,196.5C 222.925,198.411 221.925,200.078 220.5,201.5C 218.5,201.5 217.5,202.5 217.5,204.5C 213.167,210.833 207.833,216.167 201.5,220.5C 199.5,220.5 198.5,221.5 198.5,223.5C 198.167,223.5 197.833,223.5 197.5,223.5C 195.5,223.5 194.5,224.5 194.5,226.5C 194.167,226.5 193.833,226.5 193.5,226.5C 190.296,227.383 187.629,229.05 185.5,231.5C 181.182,232.992 177.182,234.992 173.5,237.5C 151.096,247.522 127.763,250.189 103.5,245.5C 98.0995,243.259 92.4329,241.592 86.5,240.5C 84.597,240.204 82.9303,239.537 81.5,238.5C 79.8243,236.166 77.491,235.166 74.5,235.5C 74.0269,234.094 73.0269,233.427 71.5,233.5C 64.9735,231.076 59.3068,227.409 54.5,222.5C 53.0892,220.086 51.0892,218.419 48.5,217.5C 45.7689,213.766 42.4356,210.766 38.5,208.5C 37.8333,207.5 37.1667,206.5 36.5,205.5C 35.8645,203.205 34.5311,201.539 32.5,200.5C 28.1688,195.848 24.8355,190.514 22.5,184.5C 22.0075,182.181 21.0075,180.181 19.5,178.5C 16.5361,173.618 14.5361,168.285 13.5,162.5C 13.1016,158.239 12.1016,154.239 10.5,150.5C 10.3916,145.29 9.7249,140.29 8.5,135.5C 8.5,135.167 8.5,134.833 8.5,134.5C 8.18957,122.372 9.18957,110.372 11.5,98.5C 14.6077,92.1803 16.941,85.5136 18.5,78.5C 21.9145,69.9919 26.5811,62.3253 32.5,55.5C 34.5869,54.4154 35.9202,52.7488 36.5,50.5C 41.8333,45.8333 46.8333,40.8333 51.5,35.5C 53.4426,32.5293 56.1092,30.5293 59.5,29.5C 61.8525,28.6597 63.8525,27.3264 65.5,25.5C 68.678,22.7417 72.3447,20.7417 76.5,19.5C 82.112,18.0761 87.4453,16.0761 92.5,13.5C 110.954,9.38003 129.621,8.38003 148.5,10.5 Z"/></g>
<g><path style="opacity:1" fill="#a4a4a4" d="M 148.5,10.5 C 129.621,8.38003 110.954,9.38003 92.5,13.5C 106.891,7.99488 121.891,6.16154 137.5,8C 141.312,8.79549 144.979,9.62882 148.5,10.5 Z"/></g>
<g><path style="opacity:0.937" fill="#b2b2b2" d="M 148.5,10.5 C 152.837,10.5841 156.837,11.5841 160.5,13.5C 156.239,13.1016 152.239,12.1016 148.5,10.5 Z"/></g>
<g><path style="opacity:1" fill="#bebebe" d="M 92.5,13.5 C 87.4453,16.0761 82.112,18.0761 76.5,19.5C 81.3531,16.4146 86.6865,14.4146 92.5,13.5 Z"/></g>
<g><path style="opacity:1" fill="#d36060" d="M 109.5,21.5 C 162.008,17.3255 199.841,38.6589 223,85.5C 238.794,129.194 231.461,168.528 201,203.5C 168.779,233.634 131.612,241.801 89.5,228C 45.5033,208.218 22.8366,174.051 21.5,125.5C 24.7454,79.7743 47.0788,47.2743 88.5,28C 95.5269,25.4881 102.527,23.3214 109.5,21.5 Z"/></g>
<g><path style="opacity:0.992" fill="#a3a3a3" d="M 182.5,22.5 C 186.505,23.4977 189.839,25.4977 192.5,28.5C 188.827,26.9998 185.494,24.9998 182.5,22.5 Z"/></g>
<g><path style="opacity:0.969" fill="#a6a6a6" d="M 65.5,25.5 C 63.8525,27.3264 61.8525,28.6597 59.5,29.5C 60.8021,27.1782 62.8021,25.8449 65.5,25.5 Z"/></g>
<g><path style="opacity:1" fill="#fefdfd" d="M 112.5,30.5 C 134.436,28.2367 154.769,32.7367 173.5,44C 160.781,66.6097 147.948,89.1097 135,111.5C 129.126,108.925 123.292,108.925 117.5,111.5C 103.955,89.5859 91.2886,67.0859 79.5,44C 82.8911,40.7455 86.8911,38.4122 91.5,37C 98.4725,34.3469 105.472,32.1802 112.5,30.5 Z"/></g>
<g><path style="opacity:1" fill="#b4b4b4" d="M 51.5,35.5 C 46.8333,40.8333 41.8333,45.8333 36.5,50.5C 40.5,44.5 45.5,39.5 51.5,35.5 Z"/></g>
<g><path style="opacity:1" fill="#b5b5b5" d="M 206.5,39.5 C 210.898,42.8947 214.564,46.8947 217.5,51.5C 213.102,48.1053 209.436,44.1053 206.5,39.5 Z"/></g>
<g><path style="opacity:1" fill="#b2b2b2" d="M 36.5,50.5 C 35.9202,52.7488 34.5869,54.4154 32.5,55.5C 33.0798,53.2512 34.4131,51.5846 36.5,50.5 Z"/></g>
<g><path style="opacity:1" fill="#aaaaaa" d="M 217.5,51.5 C 219.587,52.5846 220.92,54.2512 221.5,56.5C 219.413,55.4154 218.08,53.7488 217.5,51.5 Z"/></g>
<g><path style="opacity:0.961" fill="#989898" d="M 224.5,60.5 C 225.906,60.9731 226.573,61.9731 226.5,63.5C 225.094,63.0269 224.427,62.0269 224.5,60.5 Z"/></g>
<g><path style="opacity:1" fill="#aaaaaa" d="M 18.5,78.5 C 16.941,85.5136 14.6077,92.1803 11.5,98.5C 12.7449,91.3661 15.0783,84.6995 18.5,78.5 Z"/></g>
<g><path style="opacity:1" fill="#aeaeae" d="M 234.5,78.5 C 238.002,84.6687 240.335,91.3354 241.5,98.5C 238.636,92.0871 236.303,85.4205 234.5,78.5 Z"/></g>
<g><path style="opacity:0.933" fill="#949494" d="M 241.5,99.5 C 242.924,101.515 243.59,103.848 243.5,106.5C 242.076,104.485 241.41,102.152 241.5,99.5 Z"/></g>
<g><path style="opacity:0.871" fill="#969696" d="M 243.5,107.5 C 244.943,113.1 245.61,118.933 245.5,125C 245.162,134.543 244.329,144.043 243,153.5C 242.722,154.416 242.222,155.082 241.5,155.5C 244.372,139.59 245.039,123.59 243.5,107.5 Z"/></g>
<g><path style="opacity:1" fill="#e8aeae" d="M 107.5,129.5 C 82.5,129.5 57.5,129.5 32.5,129.5C 32.5,133.167 32.5,136.833 32.5,140.5C 31.5166,136.702 31.1832,132.702 31.5,128.5C 57.0055,128.169 82.3388,128.502 107.5,129.5 Z"/></g>
<g><path style="opacity:1" fill="#e8adad" d="M 220.5,129.5 C 194.939,128.857 169.606,129.524 144.5,131.5C 144.5,130.5 144.5,129.5 144.5,128.5C 170.005,128.169 195.339,128.502 220.5,129.5 Z"/></g>
<g><path style="opacity:1" fill="#fefefe" d="M 107.5,129.5 C 107.63,136.763 110.63,142.43 116.5,146.5C 103.833,169.167 91.1667,191.833 78.5,214.5C 52.0165,196.886 36.6832,172.219 32.5,140.5C 32.5,136.833 32.5,133.167 32.5,129.5C 57.5,129.5 82.5,129.5 107.5,129.5 Z"/></g>
<g><path style="opacity:1" fill="#fefefe" d="M 220.5,129.5 C 219.662,166.187 203.995,194.52 173.5,214.5C 160.833,191.833 148.167,169.167 135.5,146.5C 140.803,142.896 143.803,137.896 144.5,131.5C 169.606,129.524 194.939,128.857 220.5,129.5 Z"/></g>
<g><path style="opacity:0.804" fill="#8e8e8e" d="M 11.5,98.5 C 9.18957,110.372 8.18957,122.372 8.5,134.5C 6.77443,122.303 7.77443,110.303 11.5,98.5 Z"/></g>
<g><path style="opacity:1" fill="#b6b6b6" d="M 8.5,135.5 C 9.7249,140.29 10.3916,145.29 10.5,150.5C 8.96916,145.75 8.30249,140.75 8.5,135.5 Z"/></g>
<g><path style="opacity:0.937" fill="#b2b2b2" d="M 10.5,150.5 C 12.1016,154.239 13.1016,158.239 13.5,162.5C 11.5841,158.837 10.5841,154.837 10.5,150.5 Z"/></g>
<g><path style="opacity:1" fill="#b8b8b8" d="M 241.5,156.5 C 240.804,161.921 239.137,166.921 236.5,171.5C 237.598,166.205 239.265,161.205 241.5,156.5 Z"/></g>
<g><path style="opacity:0.949" fill="#9f9f9f" d="M 19.5,178.5 C 21.0075,180.181 22.0075,182.181 22.5,184.5C 20.461,183.089 19.461,181.089 19.5,178.5 Z"/></g>
<g><path style="opacity:0.98" fill="#a2a2a2" d="M 234.5,176.5 C 233.54,181.086 231.54,185.086 228.5,188.5C 229.992,184.182 231.992,180.182 234.5,176.5 Z"/></g>
<g><path style="opacity:0.886" fill="#999999" d="M 225.5,193.5 C 225.573,195.027 224.906,196.027 223.5,196.5C 223.427,194.973 224.094,193.973 225.5,193.5 Z"/></g>
<g><path style="opacity:1" fill="#aeaeae" d="M 32.5,200.5 C 34.5311,201.539 35.8645,203.205 36.5,205.5C 34.457,204.421 33.1237,202.754 32.5,200.5 Z"/></g>
<g><path style="opacity:0.894" fill="#9a9a9a" d="M 220.5,201.5 C 219.833,202.833 218.833,203.833 217.5,204.5C 217.5,202.5 218.5,201.5 220.5,201.5 Z"/></g>
<g><path style="opacity:0.996" fill="#949494" d="M 38.5,208.5 C 42.4356,210.766 45.7689,213.766 48.5,217.5C 44.5644,215.234 41.2311,212.234 38.5,208.5 Z"/></g>
<g><path style="opacity:1" fill="#adadad" d="M 48.5,217.5 C 51.0892,218.419 53.0892,220.086 54.5,222.5C 51.9108,221.581 49.9108,219.914 48.5,217.5 Z"/></g>
<g><path style="opacity:0.773" fill="#8a8a8a" d="M 201.5,220.5 C 200.833,221.833 199.833,222.833 198.5,223.5C 198.5,221.5 199.5,220.5 201.5,220.5 Z"/></g>
<g><path style="opacity:0.8" fill="#8f8f8f" d="M 197.5,223.5 C 196.833,224.833 195.833,225.833 194.5,226.5C 194.5,224.5 195.5,223.5 197.5,223.5 Z"/></g>
<g><path style="opacity:0.976" fill="#a2a2a2" d="M 193.5,226.5 C 191.371,228.95 188.704,230.617 185.5,231.5C 187.629,229.05 190.296,227.383 193.5,226.5 Z"/></g>
<g><path style="opacity:0.937" fill="#9a9a9a" d="M 185.5,231.5 C 182.086,234.54 178.086,236.54 173.5,237.5C 177.182,234.992 181.182,232.992 185.5,231.5 Z"/></g>
<g><path style="opacity:0.945" fill="#9a9a9a" d="M 71.5,233.5 C 73.0269,233.427 74.0269,234.094 74.5,235.5C 72.9731,235.573 71.9731,234.906 71.5,233.5 Z"/></g>
<g><path style="opacity:1" fill="#b2b2b2" d="M 74.5,235.5 C 77.491,235.166 79.8243,236.166 81.5,238.5C 78.8427,238.065 76.5093,237.065 74.5,235.5 Z"/></g>
<g><path style="opacity:1" fill="#999999" d="M 86.5,240.5 C 92.4329,241.592 98.0995,243.259 103.5,245.5C 97.4482,244.813 91.7815,243.146 86.5,240.5 Z"/></g>
</svg>
